<?xml version="1.0" encoding="iso-8859-1"?>
<!-- Uploaded to: SVG Repo, www.svgrepo.com, Generator: SVG Repo Mixer Tools -->
<svg height="800px" width="800px" version="1.1" id="Layer_1" xmlns="http://www.w3.org/2000/svg" xmlns:xlink="http://www.w3.org/1999/xlink" 
	 viewBox="0 0 512 512" xml:space="preserve">
<g>
	<path style="fill:#008780;" d="M63.452,160.822c-5.08-2.467-10.781-3.852-16.809-3.852c-21.286,0-38.54,17.256-38.54,38.541
		c0,12.267,5.737,23.185,14.666,30.244c-8.929,7.059-14.666,17.978-14.666,30.244s5.737,23.185,14.666,30.244
		c-8.929,7.057-14.666,17.976-14.666,30.243c0,21.286,17.256,38.542,38.54,38.542c6.026,0,11.729-1.385,16.809-3.852
		c24.957-11.143,122.368-55.034,122.368-95.177S88.409,171.965,63.452,160.822z"/>
	<path style="fill:#008780;" d="M503.897,256.001c0-12.267-5.737-23.185-14.666-30.244c8.929-7.058,14.666-17.978,14.666-30.244
		c0-21.286-17.256-38.541-38.54-38.541c-6.026,0-11.729,1.385-16.809,3.852c-24.957,11.143-122.367,55.032-122.367,95.177
		s97.411,84.035,122.367,95.177c5.08,2.466,10.782,3.852,16.809,3.852c21.286,0,38.54-17.256,38.54-38.542
		c0-12.267-5.737-23.185-14.666-30.244C498.16,279.185,503.897,268.266,503.897,256.001z"/>
</g>
<circle style="fill:#00BCB4;" cx="255.996" cy="255.996" r="133.384"/>
<g>
	<path style="fill:#004D7A;" d="M256.001,122.617c-0.951,0-1.897,0.016-2.842,0.037L122.652,253.158
		c-0.021,0.945-0.037,1.892-0.037,2.842c0,9.88,1.085,19.505,3.122,28.772l159.034-159.034
		C275.505,123.7,265.88,122.617,256.001,122.617z"/>
	<path style="fill:#004D7A;" d="M387.306,232.419L232.419,387.306c7.655,1.366,15.535,2.079,23.58,2.079
		c3.153,0,6.277-0.118,9.374-0.333l123.677-123.677c0.215-3.097,0.333-6.222,0.333-9.374
		C389.383,247.954,388.67,240.074,387.306,232.419z"/>
	<path style="fill:#004D7A;" d="M338.579,151.251L151.25,338.579c6.496,8.229,13.941,15.674,22.17,22.17L360.75,173.422
		C354.254,165.191,346.809,157.746,338.579,151.251z"/>
</g>
<path style="fill:#022A3A;" d="M500.869,225.756c7.154-8.363,11.131-18.994,11.131-30.244c0-25.72-20.925-46.644-46.643-46.644
	c-7.08,0-13.883,1.549-20.225,4.606c-11.151,4.978-38.903,17.388-65.613,33.596c-24.233-43.252-70.515-72.556-123.52-72.556
	s-99.287,29.303-123.52,72.555c-26.709-16.209-54.46-28.616-65.612-33.594c-6.341-3.056-13.145-4.606-20.225-4.606
	C20.925,148.869,0,169.793,0,195.512c0,11.249,3.977,21.881,11.131,30.244C3.977,234.121,0,244.751,0,256.001
	c0,11.249,3.977,21.881,11.131,30.244C3.977,294.607,0,305.239,0,316.488c0,25.72,20.925,46.644,46.643,46.644
	c7.08,0,13.883-1.549,20.224-4.606c11.056-4.935,38.881-17.375,65.613-33.594c24.233,43.252,70.515,72.555,123.52,72.555
	s99.286-29.303,123.52-72.555c26.73,16.219,54.556,28.658,65.612,33.594c6.342,3.056,13.145,4.606,20.225,4.606
	c25.72,0,46.643-20.925,46.643-46.644c0-11.249-3.977-21.881-11.131-30.244c7.154-8.363,11.131-18.995,11.131-30.244
	C512,244.751,508.024,234.121,500.869,225.756z M60.148,343.778c-0.079,0.036-0.158,0.072-0.236,0.11
	c-4.152,2.016-8.616,3.038-13.269,3.038c-16.783,0-30.438-13.655-30.438-30.439c0-9.359,4.224-18.066,11.588-23.887
	c1.944-1.536,3.078-3.879,3.078-6.357s-1.134-4.82-3.078-6.357c-7.364-5.821-11.588-14.527-11.588-23.886
	c0-9.359,4.224-18.065,11.588-23.887c1.945-1.536,3.078-3.879,3.078-6.357c0-2.478-1.134-4.82-3.078-6.357
	c-7.364-5.821-11.588-14.528-11.588-23.887c0-16.784,13.655-30.439,30.438-30.439c4.653,0,9.117,1.022,13.269,3.038
	c0.078,0.038,0.157,0.075,0.236,0.11c9.937,4.436,38.766,17.31,65.204,33.484c-6.977,16.728-10.839,35.068-10.839,54.295
	c0,19.228,3.861,37.568,10.839,54.296C99.028,326.418,71.037,338.917,60.148,343.778z M256.001,381.281
	c-69.08,0-125.281-56.201-125.281-125.281S186.921,130.72,256.001,130.72s125.28,56.201,125.28,125.281
	S325.08,381.281,256.001,381.281z M484.206,232.113c7.364,5.822,11.588,14.528,11.588,23.887c0,9.359-4.224,18.066-11.588,23.887
	c-1.944,1.536-3.078,3.879-3.078,6.357c0,2.478,1.134,4.82,3.078,6.357c7.364,5.821,11.588,14.528,11.588,23.887
	c0,16.784-13.655,30.439-30.438,30.439c-4.653,0-9.117-1.022-13.27-3.038c-0.078-0.038-0.157-0.075-0.236-0.11
	c-10.89-4.862-38.881-17.363-65.204-33.483c6.977-16.728,10.839-35.068,10.839-54.295s-3.861-37.566-10.839-54.295
	c26.436-16.172,55.267-29.047,65.204-33.484c0.079-0.036,0.158-0.072,0.236-0.11c4.152-2.016,8.617-3.038,13.27-3.038
	c16.784,0,30.438,13.655,30.438,30.439c0,9.359-4.224,18.066-11.588,23.887c-1.944,1.536-3.078,3.879-3.078,6.357
	C481.128,228.234,482.261,230.576,484.206,232.113z"/>
</svg>