<?xml version="1.0" encoding="iso-8859-1"?>
<!-- Uploaded to: SVG Repo, www.svgrepo.com, Generator: SVG Repo Mixer Tools -->
<svg version="1.1" id="Layer_1" xmlns="http://www.w3.org/2000/svg" xmlns:xlink="http://www.w3.org/1999/xlink" 
	 viewBox="0 0 512 512" xml:space="preserve">
<path style="fill:#3C66B1;" d="M336.623,504.379H175.378c-7.266,0-13.211-5.945-13.211-13.211V172.9
	c0-7.266,5.945-13.211,13.211-13.211h161.246c7.266,0,13.211,5.945,13.211,13.211v318.268
	C349.834,498.434,343.889,504.379,336.623,504.379z"/>
<g>
	<path style="fill:#315591;" d="M336.623,159.689H175.378c-7.266,0-13.211-5.945-13.211-13.211v-31.231
		c0-7.266,5.945-13.211,13.211-13.211h161.246c7.266,0,13.211,5.945,13.211,13.211v31.231
		C349.834,153.744,343.889,159.689,336.623,159.689z"/>
	<path style="opacity:0.43;fill:#315591;enable-background:new    ;" d="M336.623,194.77H175.378
		c-7.266,0-13.211-5.945-13.211-13.211v-8.66c0-7.266,5.945-13.211,13.211-13.211h161.246c7.266,0,13.211,5.945,13.211,13.211v8.66
		C349.834,188.825,343.889,194.77,336.623,194.77z"/>
</g>
<g>
	<path style="fill:#4E8FE3;" d="M302.482,102.037h-92.963V68.04c0-7.266,5.945-13.211,13.211-13.211h66.541
		c7.266,0,13.211,5.945,13.211,13.211V102.037z"/>
	<path style="fill:#4E8FE3;" d="M268.263,7.622h-24.527c-3.61,0-6.536,2.927-6.536,6.536l-0.053,27.177h37.599l0.053-27.177
		C274.8,10.548,271.874,7.622,268.263,7.622z"/>
</g>
<path style="fill:#FFF5CC;" d="M232.981,236.613h63.44c2.358,0,4.02,2.313,3.269,4.548l-14.493,43.107
	c-0.751,2.235,0.912,4.548,3.269,4.548h21.27c2.887,0,4.497,3.336,2.699,5.596l-73.195,91.991c-2.256,2.835-6.798,0.72-6.079-2.831
	l10.237-50.565c0.433-2.136-1.2-4.133-3.38-4.133h-29.309c-2.258,0-3.907-2.134-3.337-4.319l22.273-85.363
	C230.04,237.672,231.412,236.613,232.981,236.613z"/>
<rect x="237.196" y="31.225" style="fill:#315591;" width="37.599" height="23.607"/>
<polygon style="opacity:0.09;fill:#FFFFFF;enable-background:new    ;" points="349.834,322.525 162.055,373.337 162.055,287.424 
	349.834,236.613 "/>
<path d="M357.456,115.247c0-11.487-9.345-20.833-20.833-20.833h-26.519V68.04c0-11.487-9.345-20.833-20.833-20.833h-6.849V7.622
	c0-4.21-3.412-7.622-7.622-7.622h-37.6c-4.209,0-7.622,3.411-7.622,7.622v39.586h-6.849c-11.487,0-20.833,9.345-20.833,20.833
	v26.374h-26.52c-11.487,0-20.833,9.345-20.833,20.833v31.231c0,5.011,1.779,9.612,4.739,13.211c-2.958,3.598-4.739,8.2-4.739,13.211
	v318.268c0,11.487,9.345,20.833,20.833,20.833h161.247c11.487,0,20.833-9.345,20.833-20.833V172.9c0-5.011-1.779-9.612-4.739-13.211
	c2.958-3.598,4.739-8.2,4.739-13.211V115.247z M267.179,15.243v8.361h-22.357v-8.361H267.179z M244.822,38.848h22.357v8.36h-22.357
	V38.848z M217.14,68.04c0-3.081,2.507-5.589,5.589-5.589H237.2h37.6h14.471c3.082,0,5.589,2.508,5.589,5.589v26.374h-77.72V68.04
	H217.14z M169.788,115.247c0-3.081,2.507-5.589,5.589-5.589h34.142h92.963h34.141c3.082,0,5.589,2.508,5.589,5.589v31.231
	c0,3.081-2.507,5.589-5.589,5.589H175.378c-3.082,0-5.589-2.508-5.589-5.589V115.247z M342.213,491.167
	c0,3.081-2.507,5.589-5.589,5.589H175.378c-3.082,0-5.589-2.508-5.589-5.589V172.9c0-3.081,2.507-5.589,5.589-5.589h161.246
	c3.082,0,5.589,2.508,5.589,5.589V491.167z"/>
<path d="M316.886,281.194H294.27l14.172-42.152c0.782-2.325,0.396-4.885-1.036-6.878c-1.432-1.992-3.736-3.173-6.189-3.173h-70.902
	c-3.468,0-6.5,2.342-7.375,5.697l-24.072,92.26c-0.597,2.284-0.101,4.716,1.343,6.584c1.443,1.869,3.671,2.962,6.031,2.962h28.67
	l-12.069,59.609c-0.699,3.452,1.059,6.934,4.252,8.421c1.033,0.482,2.13,0.713,3.215,0.712c2.267,0,4.484-1.012,5.967-2.876
	l86.57-108.8c1.822-2.291,2.173-5.421,0.901-8.057C322.481,282.869,319.813,281.194,316.886,281.194z M244.071,368.089l7.634-37.704
	c0.453-2.241-0.123-4.567-1.57-6.337s-3.614-2.797-5.9-2.797h-28.124l20.095-77.016h54.411l-14.172,42.152
	c-0.782,2.325-0.396,4.885,1.036,6.878c1.432,1.992,3.736,3.173,6.189,3.173h17.415L244.071,368.089z"/>
</svg>