<?xml version="1.0" encoding="utf-8"?>
<!-- Uploaded to: SVG Repo, www.svgrepo.com, Generator: SVG Repo Mixer Tools -->
<!DOCTYPE svg PUBLIC "-//W3C//DTD SVG 1.1//EN" "http://www.w3.org/Graphics/SVG/1.1/DTD/svg11.dtd">
<svg xmlns="http://www.w3.org/2000/svg" xmlns:xlink="http://www.w3.org/1999/xlink" version="1.1" id="Layer_1"  width="512" height="512" viewBox="0 0 512 512" enable-background="new 0 0 512 512" xml:space="preserve">
<g id="gum">
	<g>
		<polygon fill="#CCD1D9" points="301.062,331.592 180.189,211.157 391.341,0.005 511.995,120.659   "/>
	</g>
	<path fill="#E6E9ED" d="M454.793,128.205v-19.499h19.499l0,0c2.719,0,5.453-1.047,7.531-3.125c4.172-4.156,4.172-10.922,0-15.078   L391.341,0.005l-99.404,99.404l81.201,81.201v7.922h21.328l-0.016-19.5h19.5c2.719,0,5.469-1.031,7.547-3.125   c2.094-2.078,3.125-4.812,3.125-7.547v-19.484h19.5v-0.016c2.734,0.016,5.452-1.031,7.546-3.109   C453.746,133.658,454.793,130.939,454.793,128.205z"/>
	<g>
		<polygon fill="#8CC153" points="135.737,511.995 0.005,376.264 232.969,143.283 368.717,279.031   "/>
	</g>
	<g>
		<polygon fill="#A0D468" points="150.83,496.917 15.083,361.186 293.296,82.956 429.044,218.704   "/>
	</g>
	<g>
		<path fill="#424953" d="M183.673,363.873c-4.156-4.172-4.156-10.922,0-15.094l98.029-98.029c4.172-4.156,10.922-4.156,15.094,0    c4.156,4.172,4.156,10.922,0,15.078l-98.045,98.045C194.595,368.029,187.845,368.029,183.673,363.873z"/>
	</g>
	<g>
		<path fill="#424953" d="M123.346,363.873c-4.172-4.172-4.172-10.922,0-15.094l158.356-158.356c4.172-4.172,10.922-4.172,15.094,0    c4.156,4.172,4.156,10.922,0,15.078L138.424,363.873C134.268,368.029,127.518,368.029,123.346,363.873z"/>
	</g>
	<polygon opacity="0.2" fill="#FFFFFF" points="150.83,496.917 135.737,481.84 413.966,203.61 429.044,218.704  "/>
</g>
</svg>